<mxfile host="Electron" modified="2024-02-04T20:38:46.416Z" agent="Mozilla/5.0 (X11; Linux x86_64) AppleWebKit/537.36 (KHTML, like Gecko) draw.io/23.0.2 Chrome/120.0.6099.109 Electron/28.2.0 Safari/537.36" etag="yX1ggML69DcJYldb6bT9" version="23.0.2" type="device">
  <diagram name="Page-1" id="sciuVL1iwkz0c2octCnq">
    <mxGraphModel dx="655" dy="680" grid="1" gridSize="10" guides="1" tooltips="1" connect="1" arrows="1" fold="1" page="1" pageScale="1" pageWidth="827" pageHeight="1169" math="0" shadow="0">
      <root>
        <mxCell id="0" />
        <mxCell id="1" parent="0" />
        <mxCell id="QKGu-vyqcB4CPgLM2M36-1" value="" style="ellipse;html=1;" vertex="1" parent="1">
          <mxGeometry x="400" y="50" width="40" height="40" as="geometry" />
        </mxCell>
        <mxCell id="QKGu-vyqcB4CPgLM2M36-2" value="" style="endArrow=open;html=1;rounded=0;align=center;verticalAlign=top;endFill=0;labelBackgroundColor=none;endSize=6;" edge="1" source="QKGu-vyqcB4CPgLM2M36-1" parent="1">
          <mxGeometry relative="1" as="geometry">
            <mxPoint x="420" y="150" as="targetPoint" />
          </mxGeometry>
        </mxCell>
        <mxCell id="QKGu-vyqcB4CPgLM2M36-3" value="Start application" style="text;html=1;align=center;verticalAlign=middle;resizable=0;points=[];autosize=1;strokeColor=none;fillColor=none;" vertex="1" parent="1">
          <mxGeometry x="365" y="10" width="110" height="30" as="geometry" />
        </mxCell>
        <mxCell id="QKGu-vyqcB4CPgLM2M36-7" style="edgeStyle=orthogonalEdgeStyle;rounded=0;orthogonalLoop=1;jettySize=auto;html=1;entryX=0.5;entryY=0;entryDx=0;entryDy=0;" edge="1" parent="1" source="QKGu-vyqcB4CPgLM2M36-5" target="QKGu-vyqcB4CPgLM2M36-6">
          <mxGeometry relative="1" as="geometry" />
        </mxCell>
        <mxCell id="QKGu-vyqcB4CPgLM2M36-5" value="Generate &#39;Home&#39;" style="rounded=0;whiteSpace=wrap;html=1;" vertex="1" parent="1">
          <mxGeometry x="360" y="150" width="120" height="60" as="geometry" />
        </mxCell>
        <mxCell id="QKGu-vyqcB4CPgLM2M36-21" style="edgeStyle=orthogonalEdgeStyle;rounded=0;orthogonalLoop=1;jettySize=auto;html=1;entryX=0.506;entryY=0.002;entryDx=0;entryDy=0;entryPerimeter=0;" edge="1" parent="1" source="QKGu-vyqcB4CPgLM2M36-6" target="QKGu-vyqcB4CPgLM2M36-8">
          <mxGeometry relative="1" as="geometry" />
        </mxCell>
        <mxCell id="QKGu-vyqcB4CPgLM2M36-6" value="Initialize logs controller" style="rounded=0;whiteSpace=wrap;html=1;" vertex="1" parent="1">
          <mxGeometry x="360" y="270" width="120" height="60" as="geometry" />
        </mxCell>
        <mxCell id="QKGu-vyqcB4CPgLM2M36-24" style="edgeStyle=orthogonalEdgeStyle;rounded=0;orthogonalLoop=1;jettySize=auto;html=1;entryX=0.5;entryY=0;entryDx=0;entryDy=0;" edge="1" parent="1" source="QKGu-vyqcB4CPgLM2M36-8" target="QKGu-vyqcB4CPgLM2M36-22">
          <mxGeometry relative="1" as="geometry" />
        </mxCell>
        <mxCell id="QKGu-vyqcB4CPgLM2M36-8" value="Render &#39;Help&#39;" style="rounded=0;whiteSpace=wrap;html=1;" vertex="1" parent="1">
          <mxGeometry x="360" y="400" width="120" height="60" as="geometry" />
        </mxCell>
        <mxCell id="QKGu-vyqcB4CPgLM2M36-25" style="edgeStyle=orthogonalEdgeStyle;rounded=0;orthogonalLoop=1;jettySize=auto;html=1;entryX=0;entryY=0.5;entryDx=0;entryDy=0;exitX=0.5;exitY=1;exitDx=0;exitDy=0;" edge="1" parent="1" source="QKGu-vyqcB4CPgLM2M36-9" target="QKGu-vyqcB4CPgLM2M36-22">
          <mxGeometry relative="1" as="geometry" />
        </mxCell>
        <mxCell id="QKGu-vyqcB4CPgLM2M36-9" value="Render &#39;Messages&#39;" style="rounded=0;whiteSpace=wrap;html=1;" vertex="1" parent="1">
          <mxGeometry x="160" y="400" width="120" height="60" as="geometry" />
        </mxCell>
        <mxCell id="QKGu-vyqcB4CPgLM2M36-16" style="edgeStyle=orthogonalEdgeStyle;rounded=0;orthogonalLoop=1;jettySize=auto;html=1;entryX=0.501;entryY=-0.018;entryDx=0;entryDy=0;entryPerimeter=0;exitX=-0.002;exitY=0.417;exitDx=0;exitDy=0;exitPerimeter=0;" edge="1" parent="1" source="QKGu-vyqcB4CPgLM2M36-6" target="QKGu-vyqcB4CPgLM2M36-9">
          <mxGeometry relative="1" as="geometry" />
        </mxCell>
        <mxCell id="QKGu-vyqcB4CPgLM2M36-17" style="edgeStyle=orthogonalEdgeStyle;rounded=0;orthogonalLoop=1;jettySize=auto;html=1;entryX=0.507;entryY=-0.011;entryDx=0;entryDy=0;entryPerimeter=0;exitX=0.993;exitY=0.383;exitDx=0;exitDy=0;exitPerimeter=0;" edge="1" parent="1" source="QKGu-vyqcB4CPgLM2M36-6" target="QKGu-vyqcB4CPgLM2M36-20">
          <mxGeometry relative="1" as="geometry" />
        </mxCell>
        <mxCell id="QKGu-vyqcB4CPgLM2M36-23" style="edgeStyle=orthogonalEdgeStyle;rounded=0;orthogonalLoop=1;jettySize=auto;html=1;entryX=1;entryY=0.5;entryDx=0;entryDy=0;exitX=0.5;exitY=1;exitDx=0;exitDy=0;" edge="1" parent="1" source="QKGu-vyqcB4CPgLM2M36-20" target="QKGu-vyqcB4CPgLM2M36-22">
          <mxGeometry relative="1" as="geometry" />
        </mxCell>
        <mxCell id="QKGu-vyqcB4CPgLM2M36-20" value="Render &#39;Websocket&#39;" style="rounded=0;whiteSpace=wrap;html=1;" vertex="1" parent="1">
          <mxGeometry x="560" y="400" width="120" height="60" as="geometry" />
        </mxCell>
        <mxCell id="QKGu-vyqcB4CPgLM2M36-22" value="" style="ellipse;html=1;shape=endState;fillColor=strokeColor;" vertex="1" parent="1">
          <mxGeometry x="405" y="570" width="30" height="30" as="geometry" />
        </mxCell>
        <mxCell id="QKGu-vyqcB4CPgLM2M36-26" value="Wait for user input" style="text;html=1;align=center;verticalAlign=middle;resizable=0;points=[];autosize=1;strokeColor=none;fillColor=none;" vertex="1" parent="1">
          <mxGeometry x="360" y="600" width="120" height="30" as="geometry" />
        </mxCell>
      </root>
    </mxGraphModel>
  </diagram>
</mxfile>
